# xmcd CD database file
#
# Track frame offsets:
#	150
#	21910
#	41405
#	53795
#	74480
#	95010
#	108505
#	127105
#	143750
#	166160
#	184245
#	200175
#	217925
#	234295
#	251500
#	266305
#
# Disc length: 3772 seconds
#
# Revision: 0
# Processed by: cddbd v1.4PL0 Copyright (c) Steve Scherf et al.
# Submitted via: CDex 1.50
#
DISCID=e80eba10
DTITLE=Arne Domnerus Bossa Orchestra - A Little Bossa Nova
DYEAR=1998
DGENRE=Jazz
TTITLE0=Manha de Carnival
TTITLE1=Chovendo na Roseira
TTITLE2=Unforgettable
TTITLE3=Samba de Orfeu
TTITLE4=The Sweetest Sounds
TTITLE5=The Shadow of Your Smile
TTITLE6=The Girl from Ipanema
TTITLE7=Favela
TTITLE8=I Concentrate on You
TTITLE9=A Felicidade
TTITLE10=First Time
TTITLE11=Samba Triste
TTITLE12=No More Blues
TTITLE13=Somewhere over the Rainbow
TTITLE14=Samba Intrikat
TTITLE15=All the Things You Are
EXTD=YEAR: 1998
EXTT0=
EXTT1=
EXTT2=
EXTT3=
EXTT4=
EXTT5=
EXTT6=
EXTT7=
EXTT8=
EXTT9=
EXTT10=
EXTT11=
EXTT12=
EXTT13=
EXTT14=
EXTT15=
PLAYORDER=
